<?xml version="1.0" encoding="UTF-8" standalone="no"?>
<svg width="9528px" height="8935px" viewBox="0 0 9528 8935" version="1.1" xmlns="http://www.w3.org/2000/svg" xmlns:xlink="http://www.w3.org/1999/xlink" xmlns:sketch="http://www.bohemiancoding.com/sketch/ns">
    <!-- Generator: Sketch 3.4 (15575) - http://www.bohemiancoding.com/sketch -->
    <title>Slice 1</title>
    <desc>Created with Sketch.</desc>
    <defs></defs>
    <g id="Page-1" stroke="none" stroke-width="1" fill="none" fill-rule="evenodd" sketch:type="MSPage">
        <path d="M3048.78197,1090.44027 C1368.6138,1090.44027 0,2392.29242 0,5007.12367 C0,7566.32021 1290.72521,8934.93402 3026.52809,8934.93402 C3938.93729,8934.93402 4573.17295,8601.12577 5040.5045,8167.17506 L4740.07708,7811.11293 C4294.99942,8167.17506 3849.92176,8456.47553 3048.78197,8456.47553 C1657.91428,8456.47553 556.347075,7354.90833 556.347075,5007.12367 C556.347075,2536.94266 1691.29511,1546.64487 3082.16279,1546.64487 C3727.5254,1546.64487 4150.34918,1724.67593 4662.18849,2125.24583 L4951.48896,1769.1837 C4428.52271,1346.35992 3916.68341,1090.44027 3048.78197,1090.44027 Z M8015.84865,0 L7565.20752,0 L7565.20752,1532.17984 L6053.05617,1532.17984 L6053.05617,1942.76398 L7565.20752,1942.76398 L7565.20752,3474.94383 L8015.84865,3474.94383 L8015.84865,1942.76398 L9528,1942.76398 L9528,1532.17984 L8015.84865,1532.17984 L8015.84865,0 Z" id="C" fill="#000000" sketch:type="MSShapeGroup"></path>
    </g>
</svg>