<svg xmlns="http://www.w3.org/2000/svg" width="9528" height="8935" viewBox="0 0 9528 8935" version="1.1"><title>Slice 1</title><g stroke="none" stroke-width="1" fill="none" fill-rule="evenodd"><path d="M3048.78 1090.44C1368.61 1090.44 0 2392.29 0 5007.12 0 7566.32 1290.73 8934.93 3026.53 8934.93 3938.94 8934.93 4573.17 8601.13 5040.5 8167.18L4740.08 7811.11C4295 8167.18 3849.92 8456.48 3048.78 8456.48 1657.91 8456.48 556.35 7354.91 556.35 5007.12 556.35 2536.94 1691.3 1546.64 3082.16 1546.64 3727.53 1546.64 4150.35 1724.68 4662.19 2125.25L4951.49 1769.18C4428.52 1346.36 3916.68 1090.44 3048.78 1090.44ZM8015.85 0L7565.21 0 7565.21 1532.18 6053.06 1532.18 6053.06 1942.76 7565.21 1942.76 7565.21 3474.94 8015.85 3474.94 8015.85 1942.76 9528 1942.76 9528 1532.18 8015.85 1532.18 8015.85 0Z" fill="#000000"/></g></svg>